<svg xmlns="http://www.w3.org/2000/svg" width="20" height="18.289" viewBox="0 0 20 18.289">
  <g id="baby-boy" transform="translate(0 -21.643)">
    <g id="Group_202" data-name="Group 202" transform="translate(0 21.643)">
      <path id="Path_736" data-name="Path 736" d="M122.949,233.653a1.931,1.931,0,0,0-3.862,0h1.172a.759.759,0,0,1,1.518,0Z" transform="translate(-114.38 -223.418)" fill="#6e00e3"/>
      <path id="Path_737" data-name="Path 737" d="M291.141,231.721a1.933,1.933,0,0,0-1.931,1.931h1.172a.759.759,0,0,1,1.518,0h1.172A1.933,1.933,0,0,0,291.141,231.721Z" transform="translate(-277.779 -223.417)" fill="#6e00e3"/>
      <path id="Path_738" data-name="Path 738" d="M184.416,342.122a2.115,2.115,0,0,1-1.813-1.037l-1.009.6a3.275,3.275,0,0,0,5.644,0l-1.009-.6A2.114,2.114,0,0,1,184.416,342.122Z" transform="translate(-174.416 -328.459)" fill="#6e00e3"/>
      <path id="Path_739" data-name="Path 739" d="M19.238,29.8a2.59,2.59,0,0,0-1.351-.716A8.3,8.3,0,0,0,10,23.354H9.607A1.713,1.713,0,0,1,7.9,21.643H6.724a2.867,2.867,0,0,0,.564,1.711H6.917a1.713,1.713,0,0,1-1.711-1.711H4.035a2.887,2.887,0,0,0,1.977,2.736,8.29,8.29,0,0,0-3.9,4.707,2.6,2.6,0,0,0,0,5.114,8.292,8.292,0,0,0,15.774,0,2.6,2.6,0,0,0,1.351-4.4Zm-1.812,3.272-.44.008-.115.425a7.12,7.12,0,0,1-13.741,0l-.115-.425-.44-.008a1.438,1.438,0,0,1-1.4-1.431,1.43,1.43,0,0,1,1.4-1.431l.44-.008.115-.425A7.128,7.128,0,0,1,10,24.526a1.921,1.921,0,1,1-1.921,1.921H6.907a3.093,3.093,0,1,0,5.872-1.354,7.121,7.121,0,0,1,4.091,4.687l.115.425.44.008a1.431,1.431,0,0,1,0,2.861Z" transform="translate(0 -21.643)" fill="#6e00e3"/>
    </g>
  </g>
</svg>
