<svg xmlns="http://www.w3.org/2000/svg" width="12.666" height="20" viewBox="0 0 12.666 20">
  <g id="golf" transform="translate(-94.885)">
    <g id="Group_205" data-name="Group 205" transform="translate(94.885 0)">
      <g id="Group_204" data-name="Group 204" transform="translate(0 0)">
        <path id="Path_766" data-name="Path 766" d="M107.357,4.777a6.332,6.332,0,1,0-9.178,7.108c0,.011,0,.022,0,.033a2.643,2.643,0,0,0,1.534,2.023c.2.131.576,1.358.526,5.06a.982.982,0,1,0,1.963,0c-.066-3.7.3-4.926.5-5.056a2.646,2.646,0,0,0,1.538-2.023c0-.006,0-.012,0-.018A6.332,6.332,0,0,0,107.357,4.777Zm-4.949,8.564c-.265.126-.97.462-.876,5.673a.3.3,0,0,1-.087.222.327.327,0,0,1-.454,0,.309.309,0,0,1-.089-.224c.07-5.208-.637-5.544-.9-5.67a2.259,2.259,0,0,1-1.082-1.115,6.241,6.241,0,0,0,4.569.012A2.266,2.266,0,0,1,102.408,13.341ZM101.218,12a5.666,5.666,0,1,1,5.666-5.666A5.666,5.666,0,0,1,101.218,12Z" transform="translate(-94.885 0)" fill="#6e00e3"/>
        <path id="Path_767" data-name="Path 767" d="M146.56,213.371a.333.333,0,0,0-.363.07.338.338,0,0,0,0,.473.31.31,0,0,0,.053.04.188.188,0,0,0,.057.03.217.217,0,0,0,.06.02.46.46,0,0,0,.067.007.28.28,0,0,0,.127-.027.388.388,0,0,0,.11-.07.338.338,0,0,0,0-.473A.384.384,0,0,0,146.56,213.371Z" transform="translate(-144.1 -205.012)" fill="#6e00e3"/>
        <path id="Path_768" data-name="Path 768" d="M180.8,230.5l-.05-.04a.254.254,0,0,0-.06-.03.212.212,0,0,0-.06-.02.339.339,0,0,0-.3.09.35.35,0,0,0-.1.237.427.427,0,0,0,.007.067.211.211,0,0,0,.02.06.255.255,0,0,0,.03.06l.04.05a.351.351,0,0,0,.237.1.463.463,0,0,0,.067-.007.217.217,0,0,0,.06-.02.253.253,0,0,0,.06-.03.287.287,0,0,0,.09-.09.254.254,0,0,0,.03-.06.217.217,0,0,0,.02-.06.464.464,0,0,0,.007-.067A.351.351,0,0,0,180.8,230.5Z" transform="translate(-176.9 -221.404)" fill="#6e00e3"/>
        <path id="Path_769" data-name="Path 769" d="M214.937,239.07a.345.345,0,0,0-.11-.07.335.335,0,0,0-.253,0,.384.384,0,0,0-.11.07.338.338,0,0,0,0,.473.387.387,0,0,0,.11.07.314.314,0,0,0,.253,0,.388.388,0,0,0,.11-.07.338.338,0,0,0,0-.473Z" transform="translate(-209.7 -229.641)" fill="#6e00e3"/>
        <path id="Path_770" data-name="Path 770" d="M197.819,264.587a.254.254,0,0,0-.06-.03.212.212,0,0,0-.06-.02.336.336,0,0,0-.3.09.35.35,0,0,0-.1.237.439.439,0,0,0,.007.067.213.213,0,0,0,.02.06.253.253,0,0,0,.03.06l.04.05a.351.351,0,0,0,.237.1.464.464,0,0,0,.067-.007.218.218,0,0,0,.06-.02.254.254,0,0,0,.06-.03l.05-.04.04-.05a.253.253,0,0,0,.03-.06.218.218,0,0,0,.02-.06.464.464,0,0,0,.007-.067.351.351,0,0,0-.1-.237A.554.554,0,0,0,197.819,264.587Z" transform="translate(-193.299 -254.198)" fill="#6e00e3"/>
        <path id="Path_771" data-name="Path 771" d="M232,273.16l-.05-.04a.255.255,0,0,0-.06-.03.213.213,0,0,0-.06-.02.336.336,0,0,0-.3.09.385.385,0,0,0-.07.11.332.332,0,0,0-.026.127.35.35,0,0,0,.1.237.49.49,0,0,0,.05.04.255.255,0,0,0,.06.03.218.218,0,0,0,.06.02.52.52,0,0,0,.067.007.468.468,0,0,0,.067-.007.218.218,0,0,0,.06-.02.253.253,0,0,0,.06-.03.515.515,0,0,0,.05-.04.351.351,0,0,0,.1-.237.334.334,0,0,0-.027-.127A.387.387,0,0,0,232,273.16Z" transform="translate(-226.099 -262.398)" fill="#6e00e3"/>
        <path id="Path_772" data-name="Path 772" d="M266.136,273.173a.386.386,0,0,0-.11-.07.333.333,0,0,0-.363.07.384.384,0,0,0-.07.11.333.333,0,1,0,.613,0A.387.387,0,0,0,266.136,273.173Z" transform="translate(-258.9 -262.411)" fill="#6e00e3"/>
        <path id="Path_773" data-name="Path 773" d="M300.219,264.587a.254.254,0,0,0-.06-.03.211.211,0,0,0-.06-.02.336.336,0,0,0-.3.09.35.35,0,0,0-.1.237.435.435,0,0,0,.007.067.213.213,0,0,0,.02.06.255.255,0,0,0,.03.06l.04.05a.351.351,0,0,0,.237.1.464.464,0,0,0,.067-.007.219.219,0,0,0,.06-.02.255.255,0,0,0,.06-.03l.05-.04.04-.05a.252.252,0,0,0,.03-.06.218.218,0,0,0,.02-.06.469.469,0,0,0,.007-.067.351.351,0,0,0-.1-.237A.554.554,0,0,0,300.219,264.587Z" transform="translate(-291.7 -254.198)" fill="#6e00e3"/>
        <path id="Path_774" data-name="Path 774" d="M249.036,239h0a.335.335,0,1,0-.473.473.486.486,0,0,0,.05.04.257.257,0,0,0,.06.03.218.218,0,0,0,.06.02.51.51,0,0,0,.067.007.466.466,0,0,0,.067-.007.217.217,0,0,0,.06-.02.253.253,0,0,0,.06-.03.52.52,0,0,0,.05-.04A.338.338,0,0,0,249.036,239Z" transform="translate(-242.467 -229.568)" fill="#6e00e3"/>
        <path id="Path_775" data-name="Path 775" d="M283.2,239.046h0l-.05-.04a.254.254,0,0,0-.06-.03.21.21,0,0,0-.06-.02.346.346,0,0,0-.3.09c-.013.017-.027.033-.04.053a.188.188,0,0,0-.03.057.211.211,0,0,0-.02.06.494.494,0,0,0-.007.067.33.33,0,0,0,.333.333.464.464,0,0,0,.067-.007.217.217,0,0,0,.06-.02.253.253,0,0,0,.06-.03.522.522,0,0,0,.05-.04A.338.338,0,0,0,283.2,239.046Z" transform="translate(-275.299 -229.617)" fill="#6e00e3"/>
        <path id="Path_776" data-name="Path 776" d="M317.285,230.454a.254.254,0,0,0-.06-.03.211.211,0,0,0-.06-.02.336.336,0,0,0-.3.09.35.35,0,0,0-.1.237.435.435,0,0,0,.007.067.212.212,0,0,0,.02.06.251.251,0,0,0,.03.06l.04.05a.351.351,0,0,0,.237.1.461.461,0,0,0,.067-.007.218.218,0,0,0,.06-.02.253.253,0,0,0,.06-.03.286.286,0,0,0,.09-.09.255.255,0,0,0,.03-.06.217.217,0,0,0,.02-.06.459.459,0,0,0,.007-.067.351.351,0,0,0-.1-.237Z" transform="translate(-308.099 -221.398)" fill="#6e00e3"/>
        <path id="Path_777" data-name="Path 777" d="M351.359,213.336a.306.306,0,0,0-.253,0,.385.385,0,0,0-.11.07.35.35,0,0,0-.1.237.438.438,0,0,0,.007.067.211.211,0,0,0,.02.06.253.253,0,0,0,.03.06l.04.05a.387.387,0,0,0,.11.07.314.314,0,0,0,.253,0,.388.388,0,0,0,.11-.07l.04-.05a.253.253,0,0,0,.03-.06.218.218,0,0,0,.02-.06.464.464,0,0,0,.007-.067.351.351,0,0,0-.1-.237A.386.386,0,0,0,351.359,213.336Z" transform="translate(-340.9 -204.978)" fill="#6e00e3"/>
        <path id="Path_778" data-name="Path 778" d="M129.6,170.827a.346.346,0,0,0-.363-.07.384.384,0,0,0-.11.07.35.35,0,0,0-.1.237.333.333,0,0,0,.027.127.3.3,0,0,0,.18.18.334.334,0,0,0,.127.027.351.351,0,0,0,.237-.1.388.388,0,0,0,.07-.11.334.334,0,0,0,.027-.127A.351.351,0,0,0,129.6,170.827Z" transform="translate(-127.699 -164.065)" fill="#6e00e3"/>
        <path id="Path_779" data-name="Path 779" d="M163.807,187.98a.3.3,0,0,0-.18-.18.335.335,0,0,0-.253,0,.3.3,0,0,0-.18.18.333.333,0,0,0-.027.127.35.35,0,0,0,.1.237.387.387,0,0,0,.11.07.314.314,0,0,0,.253,0,.388.388,0,0,0,.11-.07.351.351,0,0,0,.1-.237A.334.334,0,0,0,163.807,187.98Z" transform="translate(-160.5 -180.441)" fill="#6e00e3"/>
        <path id="Path_780" data-name="Path 780" d="M368.537,170.759a.386.386,0,0,0-.11-.07.32.32,0,0,0-.193-.02.213.213,0,0,0-.06.02.255.255,0,0,0-.06.03.5.5,0,0,0-.05.04.35.35,0,0,0-.1.237.333.333,0,0,0,.026.127.386.386,0,0,0,.07.11.351.351,0,0,0,.237.1.334.334,0,0,0,.127-.027.3.3,0,0,0,.18-.18.333.333,0,0,0,.027-.127A.351.351,0,0,0,368.537,170.759Z" transform="translate(-357.301 -163.997)" fill="#6e00e3"/>
        <path id="Path_781" data-name="Path 781" d="M334.474,187.98a.3.3,0,0,0-.18-.18.335.335,0,0,0-.253,0,.3.3,0,0,0-.18.18.333.333,0,0,0-.027.127.35.35,0,0,0,.1.237.387.387,0,0,0,.11.07.314.314,0,0,0,.253,0,.388.388,0,0,0,.11-.07.351.351,0,0,0,.1-.237A.334.334,0,0,0,334.474,187.98Z" transform="translate(-324.501 -180.441)" fill="#6e00e3"/>
        <path id="Path_782" data-name="Path 782" d="M197.4,196.879a.387.387,0,0,0,.11.07.314.314,0,0,0,.253,0,.3.3,0,0,0,.18-.18.314.314,0,0,0,0-.253.3.3,0,0,0-.18-.18.335.335,0,0,0-.253,0,.3.3,0,0,0-.18.18.315.315,0,0,0,0,.253A.385.385,0,0,0,197.4,196.879Z" transform="translate(-193.3 -188.643)" fill="#6e00e3"/>
        <path id="Path_783" data-name="Path 783" d="M231.765,205.569a.33.33,0,0,0,.333-.333.453.453,0,0,0-.007-.067.218.218,0,0,0-.02-.06.189.189,0,0,0-.03-.057A.3.3,0,0,0,232,205a.349.349,0,0,0-.473,0c-.013.017-.027.033-.04.053a.189.189,0,0,0-.03.057.211.211,0,0,0-.02.06.435.435,0,0,0-.007.067.33.33,0,0,0,.333.333Z" transform="translate(-226.098 -196.903)" fill="#6e00e3"/>
        <path id="Path_784" data-name="Path 784" d="M265.9,205.569a.33.33,0,0,0,.333-.333.449.449,0,0,0-.007-.067.219.219,0,0,0-.02-.06.189.189,0,0,0-.03-.057.308.308,0,0,0-.04-.053.349.349,0,0,0-.473,0,.308.308,0,0,0-.04.053.189.189,0,0,0-.03.057.211.211,0,0,0-.02.06.437.437,0,0,0-.007.067.33.33,0,0,0,.333.333Z" transform="translate(-258.898 -196.903)" fill="#6e00e3"/>
        <path id="Path_785" data-name="Path 785" d="M299.8,196.848a.351.351,0,0,0,.237.1.334.334,0,0,0,.127-.027.347.347,0,0,0,.11-.07.388.388,0,0,0,.07-.11.314.314,0,0,0,0-.253.388.388,0,0,0-.07-.11.345.345,0,0,0-.11-.07.333.333,0,0,0-.363.07.385.385,0,0,0-.07.11.315.315,0,0,0,0,.253A.384.384,0,0,0,299.8,196.848Z" transform="translate(-291.701 -188.612)" fill="#6e00e3"/>
      </g>
    </g>
  </g>
</svg>
