<svg xmlns="http://www.w3.org/2000/svg" width="16.68" height="18.161" viewBox="0 0 16.68 18.161">
  <g id="Group_113" data-name="Group 113" transform="translate(-641.031 -383.629)">
    <path id="Path_537" data-name="Path 537" d="M968.94,471.761l-8.794,1.787,3.26,1.359-.5,3.5Z" transform="translate(-319.114 -80.229)" fill="#565656"/>
    <path id="Path_538" data-name="Path 538" d="M981.17,456.216a7.182,7.182,0,1,0-14.364,0c0,.179.008.355.02.531l2.714-.552a4.448,4.448,0,0,1,8.9.02,4.39,4.39,0,0,1-1.01,2.822l-3.439,3.977-2.331-2.7-1.853,2.039,4.183,4.836,5.543-6.409h0A7.154,7.154,0,0,0,981.17,456.216Z" transform="translate(-323.459 -65.405)" fill="#565656"/>
  </g>
</svg>
