<svg xmlns="http://www.w3.org/2000/svg" width="47.994" height="48.686" viewBox="0 0 47.994 48.686">
  <g id="Group_168" data-name="Group 168" transform="translate(-97.884 168.804)">
    <path id="Path_536" data-name="Path 536" d="M992.31,494.954l.874.007c.569.013,1.407.023,2.471.094s2.357.161,3.834.38a22.353,22.353,0,0,1,4.965,1.192,6.367,6.367,0,0,1,1.393.747,2.94,2.94,0,0,1,.693.683,1.592,1.592,0,0,1,.153.249,1.454,1.454,0,0,1,.127.292,1.473,1.473,0,0,1,.076.332l.02.176c0,.062.011-.077,0,.151v.023l0,.045-.01.092,0,.046a.2.2,0,0,1-.011.066,2.4,2.4,0,0,1-.123.4l-.037.1-.038.065-.076.128a1.971,1.971,0,0,1-.161.24,3.108,3.108,0,0,1-.355.383,3.253,3.253,0,0,1-.37.307,8.231,8.231,0,0,1-1.516.872,29.689,29.689,0,0,1-6.53,1.837c-1.142.213-2.3.384-3.48.531s-2.371.27-3.576.361c-2.406.2-4.857.283-7.307.3-.628,0-1.214-.007-1.829-.013s-1.23-.023-1.839-.042c-1.221-.035-2.434-.105-3.639-.188s-2.4-.193-3.576-.331-2.341-.292-3.48-.488a35,35,0,0,1-6.538-1.657,11.8,11.8,0,0,1-1.517-.7,4.988,4.988,0,0,1-1.446-1.123,2.627,2.627,0,0,1-.309-.466,2.136,2.136,0,0,1-.118-.294l-.049-.154-.024-.168-.017-.172-.005-.085a.87.87,0,0,1,0-.109l0-.023.012-.09.006-.044.019-.095a1.934,1.934,0,0,1,.252-.619,2.775,2.775,0,0,1,.664-.714,4.878,4.878,0,0,1,.685-.443,12.092,12.092,0,0,1,2.6-.95c.829-.207,1.613-.358,2.354-.48,1.476-.247,2.772-.358,3.834-.439s1.9-.1,2.469-.119l.875-.015-.859.167c-.56.1-1.376.274-2.411.488s-2.283.517-3.69.905c-.7.2-1.44.43-2.194.711a11.4,11.4,0,0,0-2.2,1.049,3.746,3.746,0,0,0-.442.345,1.12,1.12,0,0,0-.266.33c-.022.041-.024.095-.014.038l0-.009,0,.044,0,.091v.021c0,.027.006-.133,0-.066l.007.005s.006,0,.006.008a.047.047,0,0,1,0,.011.049.049,0,0,1,.017.015c.011.012.006.022.022.039.039.038.048.076.114.127a3.656,3.656,0,0,0,.966.607,10.156,10.156,0,0,0,1.319.493,37.855,37.855,0,0,0,6.219,1.214q1.659.2,3.384.347t3.487.232c1.174.063,2.362.094,3.555.128.595.015,1.191.024,1.785.029s1.219.007,1.8,0c2.4,0,4.791-.077,7.14-.21,1.173-.072,2.338-.157,3.484-.26s2.272-.239,3.374-.386a31.11,31.11,0,0,0,6.139-1.36,6.558,6.558,0,0,0,1.2-.57,1.714,1.714,0,0,0,.225-.159,1.458,1.458,0,0,0,.17-.152c.035-.025.035-.043.052-.063l.023-.029.016-.013-.007.01a.049.049,0,0,0,.01.052c0,.011.006-.007.009-.023l.007-.045.015-.091.007-.044.007-.024c-.013.213-.007.058-.008.107a.008.008,0,0,1,0-.008c.008,0,0-.013,0-.023s-.007-.027-.011-.044-.018-.04-.028-.064a1.359,1.359,0,0,0-.3-.34,5.3,5.3,0,0,0-1.005-.651,16.913,16.913,0,0,0-2.312-.937c-.766-.257-1.51-.47-2.218-.656-1.415-.362-2.669-.641-3.708-.848s-1.856-.366-2.415-.463Z" transform="translate(-861.043 -625.163)" fill="#fff"/>
    <path id="Path_537" data-name="Path 537" d="M981.4,471.761l-21.257,4.32,7.881,3.285-1.209,8.452Z" transform="translate(-861.237 -621.463)" fill="#fff"/>
    <path id="Path_538" data-name="Path 538" d="M1001.525,466.394a17.36,17.36,0,1,0-34.719,0c0,.432.019.859.049,1.284l6.561-1.333a10.75,10.75,0,0,1,21.5.049,10.612,10.612,0,0,1-2.441,6.821l-8.313,9.613-5.634-6.516-4.478,4.929,10.112,11.689,13.4-15.492h0A17.293,17.293,0,0,0,1001.525,466.394Z" transform="translate(-862.299 -617.838)" fill="#fff"/>
  </g>
</svg>
