<svg id="Group_203" data-name="Group 203" xmlns="http://www.w3.org/2000/svg" width="20" height="20" viewBox="0 0 20 20">
  <path id="Path_743" data-name="Path 743" d="M71.085,364.8a.293.293,0,0,0-.293.293v.191a.293.293,0,0,0,.586,0v-.191A.293.293,0,0,0,71.085,364.8Z" transform="translate(-68.027 -350.55)" fill="#6e00e3"/>
  <path id="Path_744" data-name="Path 744" d="M71.085,437.184a.293.293,0,0,0-.293.293v.191a.293.293,0,1,0,.586,0v-.191A.293.293,0,0,0,71.085,437.184Z" transform="translate(-68.027 -420.107)" fill="#6e00e3"/>
  <path id="Path_745" data-name="Path 745" d="M94.972,376.838a.292.292,0,0,0,.207-.086l.135-.135a.293.293,0,1,0-.414-.415l-.136.135a.293.293,0,0,0,.207.5Z" transform="translate(-90.981 -361.425)" fill="#6e00e3"/>
  <path id="Path_746" data-name="Path 746" d="M43.657,427.387l-.136.135a.293.293,0,1,0,.414.415l.136-.135a.293.293,0,0,0-.414-.415Z" transform="translate(-41.739 -410.609)" fill="#6e00e3"/>
  <path id="Path_747" data-name="Path 747" d="M105.059,403.442h-.192a.293.293,0,0,0,0,.586h.192a.293.293,0,0,0,0-.586Z" transform="translate(-100.489 -387.683)" fill="#6e00e3"/>
  <path id="Path_748" data-name="Path 748" d="M32.881,403.734a.293.293,0,0,0-.293-.293H32.4a.293.293,0,1,0,0,.586h.192A.293.293,0,0,0,32.881,403.734Z" transform="translate(-30.849 -387.682)" fill="#6e00e3"/>
  <path id="Path_749" data-name="Path 749" d="M95.179,427.387a.293.293,0,0,0-.414.415l.136.135a.293.293,0,0,0,.414-.415Z" transform="translate(-90.981 -410.609)" fill="#6e00e3"/>
  <path id="Path_750" data-name="Path 750" d="M43.935,376.2a.293.293,0,1,0-.414.415l.136.135a.293.293,0,1,0,.414-.415Z" transform="translate(-41.739 -361.425)" fill="#6e00e3"/>
  <path id="Path_751" data-name="Path 751" d="M408.223,11.626a.293.293,0,0,0,.293-.293v-.191a.293.293,0,1,0-.586,0v.191A.293.293,0,0,0,408.223,11.626Z" transform="translate(-391.995 -10.425)" fill="#6e00e3"/>
  <path id="Path_752" data-name="Path 752" d="M408.223,84.01a.293.293,0,0,0,.293-.293v-.191a.293.293,0,1,0-.586,0v.191A.293.293,0,0,0,408.223,84.01Z" transform="translate(-391.995 -79.982)" fill="#6e00e3"/>
  <path id="Path_753" data-name="Path 753" d="M432.111,22.888a.292.292,0,0,0,.207-.086l.136-.135a.293.293,0,0,0-.414-.415l-.135.135a.293.293,0,0,0,.207.5Z" transform="translate(-414.95 -21.301)" fill="#6e00e3"/>
  <path id="Path_754" data-name="Path 754" d="M380.8,73.436l-.135.135a.293.293,0,0,0,.414.415l.135-.135a.293.293,0,1,0-.414-.415Z" transform="translate(-365.708 -70.485)" fill="#6e00e3"/>
  <path id="Path_755" data-name="Path 755" d="M441.712,49.784a.293.293,0,0,0,.293.293h.192a.293.293,0,0,0,0-.586H442A.293.293,0,0,0,441.712,49.784Z" transform="translate(-424.458 -47.558)" fill="#6e00e3"/>
  <path id="Path_756" data-name="Path 756" d="M369.536,50.077h.192a.293.293,0,0,0,0-.586h-.192a.293.293,0,0,0,0,.586Z" transform="translate(-354.819 -47.558)" fill="#6e00e3"/>
  <path id="Path_757" data-name="Path 757" d="M432.04,73.986a.293.293,0,0,0,.414-.415l-.136-.135a.293.293,0,0,0-.414.415Z" transform="translate(-414.951 -70.485)" fill="#6e00e3"/>
  <path id="Path_758" data-name="Path 758" d="M380.795,22.8a.293.293,0,0,0,.414-.415l-.136-.135a.293.293,0,1,0-.414.415Z" transform="translate(-365.707 -21.301)" fill="#6e00e3"/>
  <path id="Path_759" data-name="Path 759" d="M197.461,2.48a.529.529,0,0,0-.275-.464L196.06,1.4,195.444.275a.529.529,0,0,0-.928,0L193.9,1.4l-1.126.616a.529.529,0,0,0,0,.928l1.126.616.616,1.126a.529.529,0,0,0,.928,0l.616-1.126,1.126-.616A.529.529,0,0,0,197.461,2.48Zm-1.7.574a.528.528,0,0,0-.21.21l-.574,1.049-.574-1.049a.527.527,0,0,0-.21-.21l-1.049-.574,1.049-.574a.527.527,0,0,0,.21-.21L194.98.648l.574,1.049a.527.527,0,0,0,.21.21l1.049.574Z" transform="translate(-184.98)" fill="#6e00e3"/>
  <path id="Path_760" data-name="Path 760" d="M4.961,87.534a.529.529,0,0,0-.275-.464L3.56,86.455l-.616-1.126a.529.529,0,0,0-.928,0l-.345.631a.293.293,0,0,0,.514.281L2.48,85.7l.574,1.049a.528.528,0,0,0,.21.21l1.049.574-1.049.574a.528.528,0,0,0-.21.21L2.48,89.367l-.574-1.049a.528.528,0,0,0-.21-.21L.648,87.535l.546-.3a.293.293,0,0,0-.281-.514l-.638.349a.529.529,0,0,0,0,.928l1.126.616.616,1.126a.529.529,0,0,0,.928,0l.616-1.126L4.686,88a.529.529,0,0,0,.275-.464Z" transform="translate(0 -81.732)" fill="#6e00e3"/>
  <path id="Path_761" data-name="Path 761" d="M389.686,127.477l-.894-.489a.293.293,0,0,0-.281.514l.8.439-1.049.574a.527.527,0,0,0-.21.21l-.574,1.049-.574-1.049a.528.528,0,0,0-.21-.21l-1.049-.574,1.049-.574a.528.528,0,0,0,.21-.21l.574-1.049.157.286a.293.293,0,1,0,.514-.281l-.207-.378a.529.529,0,0,0-.928,0l-.616,1.126-1.126.616a.529.529,0,0,0,0,.928l1.126.616.616,1.126a.529.529,0,0,0,.928,0l.616-1.126,1.126-.616a.529.529,0,0,0,0-.928Z" transform="translate(-369.961 -120.56)" fill="#6e00e3"/>
  <path id="Path_762" data-name="Path 762" d="M297.125,240.136a1.015,1.015,0,0,0-1.545.343,25.775,25.775,0,0,0-2.91,9.724h0a.322.322,0,0,0,.632.1,33.094,33.094,0,0,1,4.034-8.821A1.009,1.009,0,0,0,297.125,240.136Zm-.278,1.027a33.347,33.347,0,0,0-3.15,6.147,30.3,30.3,0,0,1,2.407-6.571.428.428,0,1,1,.742.424Z" transform="translate(-281.236 -230.54)" fill="#6e00e3"/>
  <path id="Path_763" data-name="Path 763" d="M101.612,203.156a38.8,38.8,0,0,0-.732-5.012,20.121,20.121,0,0,0-2.545-6.728,1,1,0,0,0-1.45-.247,1,1,0,0,0-.2,1.383c2.428,3.353,3.812,8.6,4.294,10.7a.32.32,0,0,0,.313.251.332.332,0,0,0,.05,0,.319.319,0,0,0,.273-.343Zm-2.47-7.406a20.308,20.308,0,0,0-1.985-3.542.417.417,0,0,1,.336-.66.422.422,0,0,1,.071.006.416.416,0,0,1,.281.184,19.556,19.556,0,0,1,2.462,6.531c.083.386.158.765.224,1.13A34.473,34.473,0,0,0,99.142,195.75Z" transform="translate(-92.721 -183.503)" fill="#6e00e3"/>
  <path id="Path_764" data-name="Path 764" d="M231.153,158.748a1.01,1.01,0,0,0-1.009,1.063l.658,12.43a.323.323,0,0,0,.321.305h0a.323.323,0,0,0,.322-.3l.576-10.012a.293.293,0,0,0-.585-.034l-.3,5.249-.406-7.666a.424.424,0,1,1,.847,0l-.066,1.155a.293.293,0,1,0,.585.034l.066-1.155a1.01,1.01,0,0,0-1.008-1.068Z" transform="translate(-221.153 -152.547)" fill="#6e00e3"/>
</svg>
