<svg id="Iconly_Broken_Category" data-name="Iconly/Broken/Category" xmlns="http://www.w3.org/2000/svg" width="24" height="24" viewBox="0 0 24 24">
  <g id="Category" transform="translate(2.5 2.5)">
    <path id="Category-2" data-name="Category" d="M13.3,19a2.932,2.932,0,0,1-2.875-2.944V13.186A2.908,2.908,0,0,1,13.3,10.252h2.813A2.931,2.931,0,0,1,19,13.186v2.871A2.943,2.943,0,0,1,16.117,19Zm-1.332-5.815v2.871a1.36,1.36,0,0,0,.388.964,1.3,1.3,0,0,0,.934.4h2.832a1.3,1.3,0,0,0,.934-.4,1.357,1.357,0,0,0,.387-.964V13.186a1.368,1.368,0,0,0-.39-.961,1.311,1.311,0,0,0-.941-.4H13.3A1.347,1.347,0,0,0,11.973,13.186Zm-9.09,5.8A2.976,2.976,0,0,1,0,16.048V13.186a2.966,2.966,0,0,1,.845-2.078,2.842,2.842,0,0,1,2.038-.856H4.038a.769.769,0,0,1,.74.367.805.805,0,0,1,0,.84.77.77,0,0,1-.74.368H2.883a1.354,1.354,0,0,0-1.34,1.359v2.835a1.381,1.381,0,0,0,1.34,1.359H5.713a1.313,1.313,0,0,0,.947-.4,1.371,1.371,0,0,0,.393-.964V11.764a.8.8,0,0,1,.347-.813.763.763,0,0,1,.869.025.8.8,0,0,1,.3.832v4.239a2.913,2.913,0,0,1-2.883,2.943ZM14.989,8.776a.794.794,0,0,1,0-1.576h1.129a1.323,1.323,0,0,0,.948-.41,1.386,1.386,0,0,0,.383-.977V2.943a1.364,1.364,0,0,0-1.331-1.359H13.3a1.346,1.346,0,0,0-1.332,1.359V7.236a.791.791,0,0,1-.793.774.761.761,0,0,1-.541-.245A.794.794,0,0,1,10.43,7.2V2.943A2.967,2.967,0,0,1,11.269.862,2.846,2.846,0,0,1,13.3,0h2.813a2.976,2.976,0,0,1,2.874,2.943V5.805a2.966,2.966,0,0,1-.816,2.085,2.85,2.85,0,0,1-2.022.886ZM5.7,8.749H2.883A2.933,2.933,0,0,1,0,5.814V2.943A2.943,2.943,0,0,1,2.883,0H5.7A2.93,2.93,0,0,1,8.579,2.943V5.814a2.946,2.946,0,0,1-.845,2.078A2.829,2.829,0,0,1,5.7,8.749ZM1.924,1.973a1.381,1.381,0,0,0-.4.97V5.814a1.378,1.378,0,0,0,.39.988,1.319,1.319,0,0,0,.939.4H5.7a1.318,1.318,0,0,0,.949-.41,1.377,1.377,0,0,0,.383-.977V2.943A1.361,1.361,0,0,0,5.7,1.584H2.857A1.311,1.311,0,0,0,1.924,1.973Z" transform="translate(0 0)" fill="#565656"/>
  </g>
</svg>
