<svg xmlns="http://www.w3.org/2000/svg" width="84.096" height="70.143" viewBox="0 0 84.096 70.143">
  <path id="Icon_zocial-email" data-name="Icon zocial-email" d="M.072,48.268V8.363q0-.069.208-1.316L23.766,27.138.349,49.654a5.871,5.871,0,0,1-.277-1.386ZM3.19,4.276a2.986,2.986,0,0,1,1.178-.208H67.619a3.923,3.923,0,0,1,1.247.208L45.311,24.436,42.194,26.93l-6.166,5.057L29.862,26.93l-3.118-2.494Zm.069,48.08L26.883,29.7l9.145,7.413L45.173,29.7,68.8,52.356a3.326,3.326,0,0,1-1.178.208H4.367a3.138,3.138,0,0,1-1.108-.208ZM48.29,27.138,71.707,7.047a4.135,4.135,0,0,1,.208,1.316v39.9a5.31,5.31,0,0,1-.208,1.386Z" transform="translate(-1.459 20.774) rotate(-20)" fill="#6e00e3"/>
</svg>
