<svg xmlns="http://www.w3.org/2000/svg" width="22.672" height="25.191" viewBox="0 0 22.672 25.191">
  <path id="Icon_material-date-range" data-name="Icon material-date-range" d="M12.057,14.336H9.538v2.519h2.519Zm5.038,0H14.576v2.519H17.1Zm5.038,0H19.615v2.519h2.519Zm2.519-8.817h-1.26V3H20.874V5.519H10.8V3H8.279V5.519H7.019A2.508,2.508,0,0,0,4.513,8.038L4.5,25.672a2.518,2.518,0,0,0,2.519,2.519H24.653a2.527,2.527,0,0,0,2.519-2.519V8.038A2.527,2.527,0,0,0,24.653,5.519Zm0,20.153H7.019V11.817H24.653Z" transform="translate(-4.5 -3)" fill="#565656"/>
</svg>
