<svg xmlns="http://www.w3.org/2000/svg" width="20" height="19" viewBox="0 0 20 19">
  <g id="Iconly_Bold_Heart" data-name="Iconly/Bold/Heart" transform="translate(0 0)">
    <g id="Heart">
      <path id="Heart-2" data-name="Heart" d="M10.033,19h0l-.259-.16A38.163,38.163,0,0,1,3.4,13.879,12.993,12.993,0,0,1,.393,9.08,7.744,7.744,0,0,1,.536,3.805,6.084,6.084,0,0,1,4.324.269,4.5,4.5,0,0,1,5.213.06h.12A5.7,5.7,0,0,1,6.174,0h.11A6.266,6.266,0,0,1,8.114.33h.059a.331.331,0,0,1,.09.059,3.375,3.375,0,0,1,.63.261l.38.169a2.627,2.627,0,0,1,.285.19c.057.042.106.077.145.1l.041.024A2.435,2.435,0,0,1,10,1.3,6.224,6.224,0,0,1,13.809,0h.044a5.826,5.826,0,0,1,1.86.291,6.019,6.019,0,0,1,3.755,3.517,7.915,7.915,0,0,1,.154,5.272,12.781,12.781,0,0,1-3.009,4.81,38.6,38.6,0,0,1-6.331,4.96l-.25.15ZM14.94,3.118a.809.809,0,0,0-.757.543.82.82,0,0,0,.5,1.029,1.676,1.676,0,0,1,1.07,1.57V6.29a.86.86,0,0,0,.19.62.841.841,0,0,0,.57.29.823.823,0,0,0,.79-.76V6.321a3.3,3.3,0,0,0-2.11-3.161A.78.78,0,0,0,14.94,3.118Z" transform="translate(0 0)" fill="#b5b5b5"/>
    </g>
  </g>
</svg>
