<svg xmlns="http://www.w3.org/2000/svg" width="23.375" height="27.5" viewBox="0 0 23.375 27.5">
  <g id="Iconly_Bold_Location" data-name="Iconly/Bold/Location" transform="translate(-4.813 -2.75)">
    <g id="Location" transform="translate(4.813 2.75)">
      <path id="Location-2" data-name="Location" d="M11.694,27.5a1.867,1.867,0,0,1-1.009-.34,29.58,29.58,0,0,1-7.618-7.069A14.279,14.279,0,0,1,0,11.437a11.231,11.231,0,0,1,3.442-8.09A11.729,11.729,0,0,1,11.678,0a11.582,11.582,0,0,1,11.7,11.437,14.286,14.286,0,0,1-3.067,8.654,30.14,30.14,0,0,1-7.619,7.069A1.814,1.814,0,0,1,11.694,27.5ZM11.678,7.943a3.854,3.854,0,0,0-3.849,3.85,3.728,3.728,0,0,0,1.129,2.687,3.882,3.882,0,0,0,6.586-2.687,3.883,3.883,0,0,0-3.867-3.85Z" fill="#565656"/>
    </g>
  </g>
</svg>
