<svg id="Icon_ionic-ios-checkbox-outline" data-name="Icon ionic-ios-checkbox-outline" xmlns="http://www.w3.org/2000/svg" width="15" height="15" viewBox="0 0 15 15">
  <path id="Path_540" data-name="Path 540" d="M18.25,4.5H5.75A1.249,1.249,0,0,0,4.5,5.75v12.5A1.249,1.249,0,0,0,5.75,19.5h12.5a1.249,1.249,0,0,0,1.25-1.25V5.75A1.249,1.249,0,0,0,18.25,4.5Zm.156,13.594a.313.313,0,0,1-.313.313H5.906a.313.313,0,0,1-.313-.313V5.906a.313.313,0,0,1,.313-.313H18.094a.313.313,0,0,1,.313.313Z" transform="translate(-4.5 -4.5)" fill="#6e00e3"/>
  <path id="Path_541" data-name="Path 541" d="M18.85,12.963l-.686-.709a.147.147,0,0,0-.109-.047h0a.141.141,0,0,0-.109.047L13.193,17.07l-1.73-1.74a.15.15,0,0,0-.218,0l-.693.7a.157.157,0,0,0,0,.223l2.182,2.195a.688.688,0,0,0,.456.223.721.721,0,0,0,.452-.216h0l5.209-5.268A.168.168,0,0,0,18.85,12.963Z" transform="translate(-7.158 -7.936)" fill="#6e00e3"/>
</svg>
