<svg xmlns="http://www.w3.org/2000/svg" width="18.199" height="20" viewBox="0 0 18.199 20">
  <g id="man-in-hike" transform="translate(-22.184)">
    <g id="Group_206" data-name="Group 206" transform="translate(22.184 1.908)">
      <path id="Path_787" data-name="Path 787" d="M42.945,121.589l-.09.847,2.169,2.577.376-2.779a2.641,2.641,0,0,1,.089-.373Z" transform="translate(-42.016 -118.562)" fill="#6e00e3"/>
      <path id="Path_788" data-name="Path 788" d="M34.81,168.31l.114-.839-2.146-2.55L32.46,167.9a1.343,1.343,0,0,0,1.193,1.478l1.282.137A2.62,2.62,0,0,1,34.81,168.31Z" transform="translate(-32.035 -160.135)" fill="#6e00e3"/>
      <path id="Path_789" data-name="Path 789" d="M154.859,108.624a.992.992,0,1,0-1.867.674l1.2,3.335a.991.991,0,0,0,.67.62l3.121.858a.992.992,0,1,0,.526-1.914l-2.625-.722Z" transform="translate(-147.626 -105.494)" fill="#6e00e3"/>
      <path id="Path_790" data-name="Path 790" d="M113.417,210.279l-.408-2.815a1.159,1.159,0,0,0-.5-.8l-1.654-1.1-.581-.388.01-.066.041-.306-.34-.093a1.655,1.655,0,0,1-1.117-1.033l-.378-1.047-2.032,1.15-.108.8a3.3,3.3,0,0,0,.047.96l.471,1.511.633,2.029-.885,3.365a1.158,1.158,0,1,0,2.239.589l.969-3.686a1.157,1.157,0,0,0-.015-.639l-.415-1.332,1.4.934.334,2.3a1.158,1.158,0,0,0,1.145.992,1.177,1.177,0,0,0,.167-.012A1.158,1.158,0,0,0,113.417,210.279Z" transform="translate(-102.916 -196.313)" fill="#6e00e3"/>
      <path id="Path_791" data-name="Path 791" d="M198.861,209.481a.661.661,0,0,0-.927.131l-2.483,3.3a.666.666,0,0,0-.108.218l-1.022,3.616-1.569.224a.657.657,0,0,0-.232.079l-4.542,2.565a.662.662,0,1,0,.651,1.152l4.434-2.5,1.872-.267a.662.662,0,0,0,.543-.475l1.106-3.911,2.409-3.2A.662.662,0,0,0,198.861,209.481Z" transform="translate(-180.926 -202.759)" fill="#6e00e3"/>
      <path id="Path_792" data-name="Path 792" d="M23.385,49.694l2.407.257.305.033a1.337,1.337,0,0,0,.443-.032,1.964,1.964,0,0,0-.316.824l-.391,2.883,1.692-.958-.6-1.656a1.646,1.646,0,0,1,.08-1.3c.025-.018.053-.031.076-.05a1.346,1.346,0,0,0-.7-2.381l-2.713-.289a1.343,1.343,0,0,0-.284,2.672Z" transform="translate(-22.184 -47.015)" fill="#6e00e3"/>
    </g>
    <circle id="Ellipse_56" data-name="Ellipse 56" cx="1.928" cy="1.928" r="1.928" transform="translate(27.51)" fill="#6e00e3"/>
  </g>
</svg>
