<svg xmlns="http://www.w3.org/2000/svg" width="18.228" height="18.229" viewBox="0 0 18.228 18.229">
  <g id="museum_2_" data-name="museum (2)" transform="translate(-0.001 0)">
    <path id="Path_793" data-name="Path 793" d="M396.426,268.344h2.136v5.115h-2.136Zm0,0" transform="translate(-382.311 -258.79)" fill="#6e00e3"/>
    <path id="Path_794" data-name="Path 794" d="M282.809,268.344h2.136v5.115h-2.136Zm0,0" transform="translate(-272.739 -258.79)" fill="#6e00e3"/>
    <path id="Path_795" data-name="Path 795" d="M169.191,268.344h2.136v5.115h-2.136Zm0,0" transform="translate(-163.166 -258.79)" fill="#6e00e3"/>
    <path id="Path_796" data-name="Path 796" d="M55.578,268.344h2.136v5.115H55.578Zm0,0" transform="translate(-53.598 -258.79)" fill="#6e00e3"/>
    <path id="Path_797" data-name="Path 797" d="M51.273,208.878v-.534h-15.7v.534a.534.534,0,0,0,.534.534H50.739A.534.534,0,0,0,51.273,208.878Zm0,0" transform="translate(-34.31 -200.926)" fill="#6e00e3"/>
    <path id="Path_798" data-name="Path 798" d="M17.709,442H.549a.534.534,0,0,0-.534.534v1.424a.534.534,0,0,0,.534.534h17.16a.534.534,0,0,0,.534-.534v-1.424A.534.534,0,0,0,17.709,442Zm0,0" transform="translate(-0.013 -426.264)" fill="#6e00e3"/>
    <path id="Path_799" data-name="Path 799" d="M.535,6.349H17.7a.534.534,0,0,0,.28-.989L9.4.079a.534.534,0,0,0-.56,0L.255,5.361a.534.534,0,0,0,.28.989ZM8.753,3.141h.726a.534.534,0,0,1,0,1.068H8.753a.534.534,0,0,1,0-1.068Zm0,0" transform="translate(0)" fill="#6e00e3"/>
  </g>
</svg>
