<svg xmlns="http://www.w3.org/2000/svg" width="24.944" height="20.443" viewBox="0 0 24.944 20.443">
  <path id="nautilus" d="M25.933,17.747a1.674,1.674,0,0,0-.1-.54,6.179,6.179,0,0,0-3.371-2.878c-1.983-.876-3.857-1.015-4.831-.44a7.088,7.088,0,0,0-4.67-6.351,8.829,8.829,0,0,0-11.295,5.2A10.806,10.806,0,0,0,8.15,26.631a13.591,13.591,0,0,0,4.658.816,14.041,14.041,0,0,0,12.79-8.1,3.9,3.9,0,0,0,.336-1.5c0-.016,0-.033,0-.049s0-.03,0-.045h-.006ZM8.044,9.009a2.571,2.571,0,0,0,.012-.961,8,8,0,0,1,4.625.26,6.247,6.247,0,0,1,3.558,3.261,6.175,6.175,0,0,1,.191,4.769,4.981,4.981,0,0,1-6.371,2.93,3.849,3.849,0,0,1-2.194-2.011,3.805,3.805,0,0,1-.118-2.939,3.04,3.04,0,0,1,3.888-1.788,2.319,2.319,0,0,1,1.321,1.211,2.291,2.291,0,0,1,.071,1.768,1.8,1.8,0,0,1-2.3,1.057,1.336,1.336,0,0,1-.762-.7,1.319,1.319,0,0,1-.041-1.019l-.767-.283a2.153,2.153,0,0,0,1.291,2.769A2.617,2.617,0,0,0,13.8,15.792a3.134,3.134,0,0,0-1.88-4.03,3.848,3.848,0,0,0-2.192-.132,2.454,2.454,0,0,0-.845-.783,1.665,1.665,0,0,1-.836-1.838ZM1.932,17.981a9.883,9.883,0,0,1,.5-4.961,7.941,7.941,0,0,1,4.83-4.739,2,2,0,0,1-.027.6,2.478,2.478,0,0,0,1.209,2.66,1.949,1.949,0,0,1,.476.372,3.818,3.818,0,0,0-1.94,2.121,4.623,4.623,0,0,0-.251,2.2,3.014,3.014,0,0,0-1.139.888,2.244,2.244,0,0,1-1.077.768,2.247,2.247,0,0,1-1.32.095,3.088,3.088,0,0,0-1.263,0Zm6.5,7.882a10.046,10.046,0,0,1-6.341-7.08,2.308,2.308,0,0,1,.975,0,3.034,3.034,0,0,0,1.728-.133,3.028,3.028,0,0,0,1.416-1,2.335,2.335,0,0,1,.708-.606,4.734,4.734,0,0,0,.209.549,4.662,4.662,0,0,0,2.656,2.435,5.777,5.777,0,0,0,3.167.222,3.763,3.763,0,0,1-.086,1.184,4.952,4.952,0,0,0,.888,4,3.739,3.739,0,0,1,.6,1.1,12.915,12.915,0,0,1-5.923-.676Zm6.742.556a4.5,4.5,0,0,0-.759-1.462,4.141,4.141,0,0,1-.748-3.362,4.509,4.509,0,0,0,.08-1.561A5.753,5.753,0,0,0,17.2,16.62c.056-.151.1-.3.144-.458a7.227,7.227,0,0,0,3.076,2.321,8.423,8.423,0,0,0,3.285.787A3.683,3.683,0,0,0,24.8,19.12a13.1,13.1,0,0,1-9.628,7.3Zm9.948-8.642a.474.474,0,0,1-.046.211c-.321.639-2.239.667-4.323-.254a5.469,5.469,0,0,1-2.932-2.406.633.633,0,0,1-.009-.5c.149-.3.641-.462,1.334-.462a7.741,7.741,0,0,1,2.99.715,5.471,5.471,0,0,1,2.932,2.406.885.885,0,0,1,.056.276.134.134,0,0,0,0,.018Z" transform="translate(-0.994 -7.004)" fill="#fff"/>
</svg>
