<svg xmlns="http://www.w3.org/2000/svg" width="22" height="17.711" viewBox="0 0 22 17.711">
  <g id="Out_line" data-name="Out line" transform="translate(-16 -64.602)">
    <path id="Path_765" data-name="Path 765" d="M35.038,72.465,37.8,67.2a1.773,1.773,0,0,0-3.141-1.645L31.9,70.82a1.762,1.762,0,0,0-.008,1.628l-.855,1.632-1.2-.6a.37.37,0,0,0-.486.147L27.082,77.6a4.067,4.067,0,0,0-.534,1.963,2.219,2.219,0,0,0-.94-.209h-.047a1.481,1.481,0,0,0-1.432-1.11V75.291h.37a4.07,4.07,0,0,0,4.065-4.065V69.748a1.11,1.11,0,0,0-1.109-1.109H24.592a4.137,4.137,0,0,0-3.338,1.681,4.139,4.139,0,0,0-1.281-.2H17.109A1.11,1.11,0,0,0,16,71.226V72.7a4.07,4.07,0,0,0,4.065,4.065h1.848v1.525a1.481,1.481,0,0,0-.676.388,1.478,1.478,0,0,0-1.877,1.1,1.477,1.477,0,0,0-1.835,1.052h-.786v.739h1.109a.369.369,0,0,0,.37-.37.739.739,0,0,1,1.478,0h.739a1.471,1.471,0,0,0-.354-.958.738.738,0,0,1,.723-.89l.046,0a.741.741,0,0,1,.693.737h.739a1.474,1.474,0,0,0-.388-1,.735.735,0,0,1,.868.067,1.474,1.474,0,0,0-.111.561h.739a.739.739,0,0,1,1.441-.229,2.221,2.221,0,0,0-1.441,2.077h.739a1.478,1.478,0,0,1,2.625-.932,1.48,1.48,0,0,0-.777,1.3h.739a.739.739,0,1,1,1.478,0h.739a1.47,1.47,0,0,0-.136-.618,1.109,1.109,0,0,1,1.01,0,1.474,1.474,0,0,0-.135.617h.739a.739.739,0,1,1,1.478,0h.739a1.474,1.474,0,0,0-.111-.561.739.739,0,0,1,1.22.561.369.369,0,0,0,.37.37h2.956v-.739H34.431a1.478,1.478,0,0,0-2.093-.952,4.083,4.083,0,0,0,.243-.444l1.863-3.991a.37.37,0,0,0-.17-.487L32.881,75l.844-1.61A1.776,1.776,0,0,0,35.038,72.465ZM23.391,78.447a1.483,1.483,0,0,0-.184.126,1.479,1.479,0,0,0-.555-.278V76.4a.369.369,0,0,0-.37-.37h-.739A3.33,3.33,0,0,1,18.217,72.7v-.37h-.739v.37a4.059,4.059,0,0,0,1.483,3.137A3.331,3.331,0,0,1,16.739,72.7V71.226a.37.37,0,0,1,.37-.37h2.864a3.422,3.422,0,0,1,3.418,3.418Zm-1.436-7.825a3.4,3.4,0,0,1,2.637-1.243h2.864a.37.37,0,0,1,.37.37v1.478A3.331,3.331,0,0,1,25.6,74.363a4.075,4.075,0,0,0,1.484-3.137v-.37h-.739v.37a3.338,3.338,0,0,1-2.217,3.137v-.088A4.161,4.161,0,0,0,21.955,70.621ZM33.621,76.2l-1.711,3.666a3.322,3.322,0,0,1-.4.645,1.474,1.474,0,0,0-1.229.237,1.841,1.841,0,0,0-.981-.282h-.05l1.113-2.042-.649-.354-1.442,2.644a1.47,1.47,0,0,0-.747-.248,2.215,2.215,0,0,0-.195-.285,3.324,3.324,0,0,1,.389-2.213l2.1-3.669.871.435-.7,1.335a1.032,1.032,0,1,0,1.828.958l.717-1.369Zm-2.455.485a.3.3,0,0,1-.261.158.288.288,0,0,1-.161-.049.292.292,0,0,1-.1-.38L32.4,73.059a1.759,1.759,0,0,0,.366.212,1.643,1.643,0,0,0,.154.058Zm1.894-4.092a1.034,1.034,0,0,1-.508-1.43L35.312,65.9a1.033,1.033,0,0,1,1.831.959l-2.759,5.268a1.038,1.038,0,0,1-1.323.47Z" fill="#6e00e3"/>
  </g>
</svg>
