<svg xmlns="http://www.w3.org/2000/svg" width="16.018" height="14" viewBox="0 0 16.018 14">
  <g id="theater" transform="translate(0 -31.5)">
    <path id="Path_786" data-name="Path 786" d="M7.689,31.82a.32.32,0,1,1,.32.32.321.321,0,0,1-.32-.32ZM15.7,41.752H14a1.083,1.083,0,0,1,.1.449v.192h.833a1.09,1.09,0,0,1,1.089,1.089v1.7a.32.32,0,0,1-.32.32H.32A.32.32,0,0,1,0,45.18v-1.7a1.09,1.09,0,0,1,1.089-1.089h.833V42.2a1.082,1.082,0,0,1,.1-.449H.32a.32.32,0,0,1-.32-.32V31.82a.32.32,0,0,1,.32-.32H6.6a.32.32,0,1,1,0,.641H5.29a2.887,2.887,0,0,0,2.718,1.922h0a2.887,2.887,0,0,0,2.718-1.922H9.451a.32.32,0,1,1,0-.641H15.7a.32.32,0,0,1,.32.32v9.611A.32.32,0,0,1,15.7,41.752Zm-.342-9.611H11.4a3.505,3.505,0,0,1-.428.946,2.858,2.858,0,0,0,2.163.976A2.215,2.215,0,0,0,15.356,32.141ZM5.447,33.6a3.485,3.485,0,0,1-2.306,1.1A16.943,16.943,0,0,1,1.96,38.116a8.074,8.074,0,0,1,.563,1.713H13.5a8.076,8.076,0,0,1,.563-1.713,16.939,16.939,0,0,1-1.181-3.422,3.485,3.485,0,0,1-2.306-1.1,3.522,3.522,0,0,1-5.125,0Zm4.484,7.831a1.086,1.086,0,0,1,.769-.318h2.307a1.085,1.085,0,0,1,.326.05q.012-.346.056-.691H2.63q.043.345.056.691a1.085,1.085,0,0,1,.326-.05H5.318a1.086,1.086,0,0,1,.769.318,1.086,1.086,0,0,1,.769-.318H9.162A1.086,1.086,0,0,1,9.931,41.429Zm-.769.322H6.856a.449.449,0,0,0-.449.449v.192h3.2V42.2A.449.449,0,0,0,9.162,41.752Zm-8.5-9.611a2.215,2.215,0,0,0,2.221,1.922,2.858,2.858,0,0,0,2.163-.976,3.505,3.505,0,0,1-.428-.946Zm-.022,1.5v4.138h.771a16.123,16.123,0,0,0,1.073-3.1,2.836,2.836,0,0,1-1.667-.835Q.724,33.745.641,33.641Zm1.4,7.47a7.38,7.38,0,0,0-.649-2.691H.641v2.691Zm3.083,2.371a.449.449,0,0,0-.449-.449H1.089a.449.449,0,0,0-.449.449v1.377H5.126Zm.32-.771a1.094,1.094,0,0,1,.32-.221V42.2a.449.449,0,0,0-.449-.449H3.011a.449.449,0,0,0-.449.449v.192H4.677a1.086,1.086,0,0,1,.769.318Zm4.805.771a.449.449,0,0,0-.449-.449H6.215a.449.449,0,0,0-.449.449v1.377h4.485Zm.32-.771a1.086,1.086,0,0,1,.769-.318h2.114V42.2a.449.449,0,0,0-.449-.449H10.7a.449.449,0,0,0-.449.449v.289A1.094,1.094,0,0,1,10.572,42.711Zm.769.322a.449.449,0,0,0-.449.449v1.377h4.485V43.482a.449.449,0,0,0-.449-.449Zm4.037-4.613h-.753a7.38,7.38,0,0,0-.649,2.691h1.4Zm0-.641V33.641c-.056.069-.115.136-.177.2a2.836,2.836,0,0,1-1.667.835,16.117,16.117,0,0,0,1.073,3.1h.771Z" transform="translate(0 0)" fill="#6e00e3"/>
  </g>
</svg>
